:version 1.10
:name ASF
:units
  mass 1
  length 1
  angle deg
:documentation
  ASF file generated by Kaydara
:root
  axis xyz
  order  tx ty tz rx ry rz
  position 0 0 0
  orientation 0 0 0
:bonedata
  begin
    id 1
    name RightUpLegDummy
    direction -0.718183 -0.695806 0.00816078
    length 4.904
    axis 0 0 0 xyz
  end
  begin
    id 2
    name RightUpLeg
    direction 3.53373e-006 -0.995788 0.0916898
    length 17.4976
    axis -3.49089 -0.000906625 0.000286804 xyz
    dof rx ry rz
  end
  begin
    id 3
    name RightLeg
    direction 0.00371092 -0.995096 -0.0988419
    length 16.5821
    axis 3.68512 0.0193738 -0.131023 xyz
    dof rx ry rz
  end
  begin
    id 4
    name RightFoot
    direction 0.00079151 -0.46099 0.887405
    length 3.77069
    axis 4.81691e-005 -0.120479 -0.188788 xyz
    dof rx ry rz
  end
  begin
    id 5
    name RightToes
    direction 0 0 0
    length 0
    axis 0 0 0 xyz
    dof rx ry rz
  end
  begin
    id 6
    name SpineDummy
    direction 8.3039e-015 1 4.57515e-016
    length 4.6813
    axis 0 0 0 xyz
  end
  begin
    id 7
    name Spine
    direction -3.15643e-008 0.999988 0.00495137
    length 10.1015
    axis -0.001389 0.000121418 2.40972e-006 xyz
    dof rx ry rz
  end
  begin
    id 8
    name Spine1
    direction 0 0 0
    length 0
    axis -0.001389 0.000121451 1.30017e-006 xyz
    dof rx ry rz
  end
  begin
    id 9
    name HEadDummy
    direction -1.99912e-008 0.999999 0.00127422
    length 3.43865
    axis -0.001389 0.000121451 1.30017e-006 xyz
  end
  begin
    id 10
    name HEad
    direction 0 0 0
    length 0
    axis 0 0 0 xyz
    dof rx ry rz
  end
  begin
    id 11
    name LeftShoulder1Dummy
    direction 0.998891 -0.0402509 -0.0244456
    length 3.5433
    axis -0.001389 0.000121451 1.30017e-006 xyz
  end
  begin
    id 12
    name LeftShoulder1
    direction 0.99951 -0.000327763 0.0313091
    length 4.05031
    axis -0.001389 0.000121451 1.30017e-006 xyz
    dof rx ry rz
  end
  begin
    id 13
    name LeftArm
    direction 0.998561 -0.00100056 -0.0536182
    length 10.3537
    axis -23.1894 0.134784 0.967509 xyz
    dof rx ry rz
  end
  begin
    id 14
    name LeftForeArm
    direction 0.998903 0.00866432 0.046012
    length 8.70632
    axis -9.91835 -0.06569 -0.177794 xyz
    dof rx ry rz
  end
  begin
    id 15
    name LeftHand
    direction 0 0 0
    length 0
    axis 0 0 0 xyz
    dof rx ry rz
  end
  begin
    id 16
    name RightShoulderDummy
    direction -0.998891 -0.0402509 -0.0244414
    length 3.5433
    axis -0.001389 0.000121451 1.30017e-006 xyz
  end
  begin
    id 17
    name RightShoulder
    direction -0.99951 -0.000327807 0.0313133
    length 4.05031
    axis 0.215806 0.000203643 -0.0068026 xyz
    dof rx ry rz
  end
  begin
    id 18
    name RightArm
    direction -0.998573 -0.000999564 -0.053403
    length 10.3947
    axis -23.2009 -0.134239 -0.964101 xyz
    dof rx ry rz
  end
  begin
    id 19
    name RightForeArm
    direction -0.998898 0.00868028 0.0461306
    length 8.68355
    axis -9.92322 0.0658061 0.178868 xyz
    dof rx ry rz
  end
  begin
    id 20
    name RightHand
    direction 0 0 0
    length 0
    axis 0 0 0 xyz
    dof rx ry rz
  end
  begin
    id 21
    name LeftUpLegDummy
    direction 0.718183 -0.695806 0.00816078
    length 4.904
    axis 0 0 0 xyz
  end
  begin
    id 22
    name LeftUpLeg
    direction -6.81752e-006 -0.995793 0.0916337
    length 17.4976
    axis -3.48766 0.00143442 -0.000524262 xyz
    dof rx ry rz
  end
  begin
    id 23
    name LeftLeg
    direction -0.00601358 -0.995091 -0.0987824
    length 16.5821
    axis 3.68178 -0.00654042 -0.000285133 xyz
    dof rx ry rz
  end
  begin
    id 24
    name LeftFoot
    direction -0.00417578 -0.460984 0.887399
    length 3.77069
    axis 1.87233e-006 4.66016e-005 -8.6538e-006 xyz
    dof rx ry rz
  end
  begin
    id 25
    name LeftToes
    direction 0 0 0
    length 0
    axis 0 0 0 xyz
    dof rx ry rz
  end
:hierarchy
  begin
    root RightUpLegDummy SpineDummy LeftUpLegDummy
    RightUpLegDummy RightUpLeg
    RightUpLeg RightLeg
    RightLeg RightFoot
    RightFoot RightToes
    SpineDummy Spine
    Spine Spine1
    Spine1 HEadDummy LeftShoulder1Dummy RightShoulderDummy
    HEadDummy HEad
    LeftShoulder1Dummy LeftShoulder1
    LeftShoulder1 LeftArm
    LeftArm LeftForeArm
    LeftForeArm LeftHand
    RightShoulderDummy RightShoulder
    RightShoulder RightArm
    RightArm RightForeArm
    RightForeArm RightHand
    LeftUpLegDummy LeftUpLeg
    LeftUpLeg LeftLeg
    LeftLeg LeftFoot
    LeftFoot LeftToes
  end

:SAMPLES-PER-SECOND 30
:FULLY-SPECIFIED
:DEGREES
282
root  6.55575 36.3674 18.9073 123.074 88.0036 113.484
RightUpLeg  -48.1204 -21.7395 -4.02443
RightLeg  59.3985 4.16254 7.05197
RightFoot  -1.5826 -1.30112 15.2068
RightToes  0.000481921 0.542163 -0.142578
Spine  41.4137 0.148746 2.46554
Spine1  -5.14453 0.991182 -0.117479
HEad  -24.6734 2.58149 -1.6364
LeftShoulder1  7.60902 -13.9637 -37.4309
LeftArm  -4.33633 -16.5815 -39.6569
LeftForeArm  -176.458 -60.1139 -163.954
LeftHand  -0.25398 0.0180481 5.50724
RightShoulder  4.84448 10.9078 27.5905
RightArm  -3.68934 8.24489 45.9055
RightForeArm  165.909 61.0073 161.747
RightHand  -1.31793 3.26391 -17.8489
LeftUpLeg  -43.8646 12.9844 -6.51418
LeftLeg  45.9217 7.52986 8.66419
LeftFoot  -10.9599 0.0642465 0.447036
LeftToes  1.06245e-005 4.65868e-005 -8.65517e-006
283
root  6.58088 36.3811 19.1235 121.73 87.9427 112.089
RightUpLeg  -47.8105 -20.2668 -6.84655
RightLeg  59.2129 3.83974 6.47232
RightFoot  -2.70519 -1.23227 15.8799
RightToes  0.000481921 0.542163 -0.142578
Spine  41.4315 0.039328 2.50695
Spine1  -5.1306 0.954983 -0.124346
HEad  -24.9448 2.70296 -1.68412
LeftShoulder1  7.60616 -13.9342 -37.4864
LeftArm  -4.29942 -16.5902 -39.4505
LeftForeArm  -176.56 -60.1676 -163.911
LeftHand  -0.25398 0.0180481 5.50724
RightShoulder  4.91547 11.0579 27.7357
RightArm  -3.74331 8.2789 45.972
RightForeArm  165.993 61.1447 161.657
RightHand  -1.30044 3.20904 -17.7261
LeftUpLeg  -43.8024 13.1421 -6.29941
LeftLeg  45.6898 7.46665 8.53076
LeftFoot  -10.7593 0.0614594 0.630855
LeftToes  1.06245e-005 4.65868e-005 -8.65517e-006
284
root  6.59007 36.4399 19.3622 128.883 88.037 119.293
RightUpLeg  -46.7824 -19.1231 -8.73655
RightLeg  57.0444 0.449148 0.364019
RightFoot  -5.35258 -0.643929 11.4234
RightToes  0.000481921 0.542163 -0.142578
Spine  41.6574 -0.247405 3.29976
Spine1  -5.46037 0.840497 -0.130716
HEad  -24.8977 2.58352 -1.78645
LeftShoulder1  7.61369 -13.9796 -37.4185
LeftArm  -3.9174 -16.6441 -39.4582
LeftForeArm  -176.646 -60.4292 -163.737
LeftHand  -0.25398 0.0180481 5.50724
RightShoulder  4.92263 11.0246 27.866
RightArm  -3.77013 8.0415 46.2051
RightForeArm  166.209 61.1479 161.675
RightHand  -1.29461 3.21405 -17.6393
LeftUpLeg  -43.5754 13.1373 -5.60129
LeftLeg  45.3292 7.35029 8.30355
LeftFoot  -10.3859 0.0597256 0.34089
LeftToes  1.06245e-005 4.65868e-005 -8.65517e-006
285
root  6.59931 36.4586 19.6746 129.531 87.9528 119.887
RightUpLeg  -45.3101 -18.0962 -10.2744
RightLeg  53.2222 -3.97774 -6.08423
RightFoot  -7.46349 -0.2545 6.20335
RightToes  0.000481921 0.542163 -0.142578
Spine  41.6012 -0.356618 3.72241
Spine1  -5.56027 0.777287 -0.111199
HEad  -24.8369 2.48731 -2.03925
LeftShoulder1  7.64715 -14.0512 -37.4309
LeftArm  -3.48506 -16.8501 -39.5115
LeftForeArm  -176.872 -60.6235 -163.593
LeftHand  -0.25398 0.0180481 5.50724
RightShoulder  4.90513 10.9642 27.8875
RightArm  -3.76163 7.87976 46.4829
RightForeArm  166.317 61.0805 161.733
RightHand  -1.30106 3.23708 -17.6797
LeftUpLeg  -43.5886 13.4739 -5.17662
LeftLeg  45.1277 7.17488 8.063
LeftFoot  -9.97275 0.0606883 -0.0779427
LeftToes  1.06245e-005 4.65868e-005 -8.65517e-006
286
root  6.62235 36.4147 20.0996 127.405 87.5449 117.664
RightUpLeg  -43.2785 -17.6081 -11.6431
RightLeg  48.5839 -6.77966 -8.55135
RightFoot  -8.29743 -0.190984 5.12491
RightToes  0.000481921 0.542163 -0.142578
Spine  41.306 -0.400811 3.54146
Spine1  -5.23457 0.659323 -0.0919809
HEad  -24.8269 2.54653 -2.31717
LeftShoulder1  7.67005 -14.0826 -37.4813
LeftArm  -3.27669 -17.0705 -39.5119
LeftForeArm  -177.243 -60.6114 -163.568
LeftHand  -0.25398 0.0180481 5.50724
RightShoulder  4.90896 10.9879 27.8576
RightArm  -3.64431 7.93288 46.7936
RightForeArm  166.33 61.0984 161.722
RightHand  -1.29783 3.21072 -17.6883
LeftUpLeg  -43.7662 14.1473 -5.13407
LeftLeg  45.047 6.67952 7.5231
LeftFoot  -9.70607 0.0601618 -0.136244
LeftToes  1.06245e-005 4.65868e-005 -8.65517e-006
287
root  6.64115 36.3373 20.6128 132.593 86.9926 122.891
RightUpLeg  -41.5012 -18.2399 -12.1131
RightLeg  45.2734 -7.14005 -7.97552
RightFoot  -8.03715 -0.271668 7.46112
RightToes  0.000481921 0.542163 -0.142578
Spine  41.2512 -0.705131 3.55247
Spine1  -4.96249 0.38749 -0.218002
HEad  -24.7547 2.59002 -2.47226
LeftShoulder1  7.6665 -14.0953 -37.4315
LeftArm  -3.28296 -17.2106 -39.6009
LeftForeArm  -177.503 -60.4736 -163.634
LeftHand  -0.25398 0.0180481 5.50724
RightShoulder  4.91357 10.9998 27.8616
RightArm  -3.35422 8.12998 47.1271
RightForeArm  166.534 61.1887 161.676
RightHand  -1.27708 3.15077 -17.5299
LeftUpLeg  -43.9159 14.5086 -4.7586
LeftLeg  45.1545 5.96009 6.79264
LeftFoot  -9.48101 0.0644161 -0.4501
LeftToes  1.06245e-005 4.65868e-005 -8.65517e-006
288
root  6.62348 36.2651 21.1731 139.173 86.6416 129.522
RightUpLeg  -41.2899 -19.5389 -11.2454
RightLeg  44.8618 -6.4805 -7.16949
RightFoot  -7.46593 -0.341417 8.60786
RightToes  0.000481921 0.542163 -0.142578
Spine  41.4741 -1.16915 4.08931
Spine1  -4.95425 0.115252 -0.564967
HEad  -24.7752 2.5308 -2.59336
LeftShoulder1  7.67169 -14.1396 -37.354
LeftArm  -3.44967 -17.4329 -39.8146
LeftForeArm  -177.657 -60.3242 -163.716
LeftHand  -0.25398 0.0180481 5.50724
RightShoulder  4.87926 10.9072 27.8409
RightArm  -2.89619 8.60404 47.483
RightForeArm  166.993 61.3135 161.63
RightHand  -1.25922 3.13217 -17.3284
LeftUpLeg  -44.1484 14.4795 -3.80654
LeftLeg  45.3766 5.55931 6.41668
LeftFoot  -8.98556 0.081094 -1.30913
LeftToes  1.06245e-005 4.65868e-005 -8.65517e-006
289
root  6.57069 36.2223 21.7727 139.4 86.6982 129.585
RightUpLeg  -42.5194 -20.2647 -9.59481
RightLeg  46.1458 -6.08723 -7.06941
RightFoot  -7.52088 -0.283663 6.91924
RightToes  0.000481921 0.542163 -0.142578
Spine  41.5829 -1.41688 4.58526
Spine1  -4.8555 0.0320335 -0.996279
HEad  -25.0747 2.55362 -2.78397
LeftShoulder1  7.70437 -14.1944 -37.4022
LeftArm  -3.78246 -17.8232 -40.026
LeftForeArm  -178.006 -60.2481 -163.734
LeftHand  -0.25398 0.0180481 5.50724
RightShoulder  4.82134 10.7899 27.7101
RightArm  -2.35829 9.49477 47.8744
RightForeArm  167.371 61.5546 161.491
RightHand  -1.26176 3.18943 -17.252
LeftUpLeg  -44.4983 14.5967 -2.72279
LeftLeg  45.3339 5.61865 6.46908
LeftFoot  -8.24334 0.104234 -2.03569
LeftToes  1.06245e-005 4.65868e-005 -8.65517e-006
290
root  6.51827 36.2067 22.4145 134.356 86.9744 124.293
RightUpLeg  -43.7249 -20.0596 -7.99247
RightLeg  47.0782 -6.07031 -7.27976
RightFoot  -8.12855 -0.191854 4.88019
RightToes  0.000481921 0.542163 -0.142578
Spine  41.5755 -1.42599 4.70958
Spine1  -4.55555 0.0676522 -1.32878
HEad  -25.365 2.76827 -2.88866
LeftShoulder1  7.73416 -14.2074 -37.5337
LeftArm  -4.11556 -18.1721 -40.25
LeftForeArm  -178.479 -60.3459 -163.629
LeftHand  -0.25398 0.0180481 5.50724
RightShoulder  4.78774 10.7578 27.5457
RightArm  -1.89324 10.46 48.2425
RightForeArm  167.399 61.9171 161.226
RightHand  -1.27979 3.29977 -17.2802
LeftUpLeg  -44.6509 14.7593 -1.54908
LeftLeg  44.9224 5.71155 6.47795
LeftFoot  -7.54641 0.137367 -2.77416
LeftToes  1.06245e-005 4.65868e-005 -8.65517e-006
291
root  6.48549 36.2098 23.0618 133.564 87.189 123.532
RightUpLeg  -44.0312 -19.7721 -6.59692
RightLeg  47.3143 -6.18288 -7.46826
RightFoot  -8.61763 -0.155196 4.07839
RightToes  0.000481921 0.542163 -0.142578
Spine  41.8098 -1.52329 4.92027
Spine1  -4.50341 0.00482899 -1.47484
HEad  -25.2102 2.98984 -2.73227
LeftShoulder1  7.74471 -14.1883 -37.6366
LeftArm  -4.15458 -18.3206 -40.6292
LeftForeArm  -178.575 -60.622 -163.443
LeftHand  -0.25398 0.0180481 5.50724
RightShoulder  4.78234 10.7788 27.4555
RightArm  -1.62442 10.9692 48.4695
RightForeArm  167.212 62.1959 160.998
RightHand  -1.30031 3.4174 -17.3264
LeftUpLeg  -44.3964 14.265 0.127415
LeftLeg  44.5156 5.91413 6.59786
LeftFoot  -6.71854 0.211907 -4.20348
LeftToes  1.06245e-005 4.65868e-005 -8.65517e-006
292
root  6.45569 36.2343 23.6708 141.228 87.3044 131.522
RightUpLeg  -43.8467 -19.9699 -5.13979
RightLeg  47.5076 -6.29181 -7.6442
RightFoot  -8.88355 -0.135421 3.49362
RightToes  0.000481921 0.542163 -0.142578
Spine  42.3459 -1.78407 5.41495
Spine1  -4.88947 -0.183206 -1.42304
HEad  -24.7404 3.03322 -2.43281
LeftShoulder1  7.76327 -14.1799 -37.7578
LeftArm  -3.85174 -18.419 -41.1406
LeftForeArm  -178.177 -60.8789 -163.31
LeftHand  -0.25398 0.0180481 5.50724
RightShoulder  4.76355 10.7568 27.3728
RightArm  -1.557 10.9971 48.5003
RightForeArm  167.036 62.2107 160.97
RightHand  -1.31728 3.49359 -17.4026
LeftUpLeg  -44.093 13.1342 1.96881
LeftLeg  44.4392 7.09483 7.7913
LeftFoot  -5.18751 0.291941 -4.9067
LeftToes  1.06245e-005 4.65868e-005 -8.65517e-006
293
root  6.40913 36.2836 24.2292 148.457 87.3991 139.032
RightUpLeg  -43.781 -20.2423 -3.67199
RightLeg  47.7128 -6.34072 -7.75551
RightFoot  -9.23185 -0.106346 2.36052
RightToes  0.000481921 0.542163 -0.142578
Spine  42.8861 -1.92121 5.69514
Spine1  -5.28848 -0.314226 -1.21885
HEad  -24.4844 3.00423 -2.22333
LeftShoulder1  7.80045 -14.181 -37.9576
LeftArm  -3.44485 -18.6358 -41.6194
LeftForeArm  -177.803 -60.9188 -163.317
LeftHand  -0.25398 0.0180481 5.50724
RightShoulder  4.71681 10.6936 27.1864
RightArm  -1.6394 10.9338 48.3575
RightForeArm  166.825 62.0337 161.083
RightHand  -1.33221 3.52713 -17.5308
LeftUpLeg  -44.242 12.2257 3.01635
LeftLeg  44.7435 9.32692 10.16
LeftFoot  -3.20433 0.211855 -2.76189
LeftToes  1.06245e-005 4.65868e-005 -8.65517e-006
